<?xml version="1.0" encoding="UTF-8" standalone="no"?>
<!-- Created with Inkscape (http://www.inkscape.org/) -->

<svg
   xmlns:dc="http://purl.org/dc/elements/1.1/"
   xmlns:cc="http://creativecommons.org/ns#"
   xmlns:rdf="http://www.w3.org/1999/02/22-rdf-syntax-ns#"
   xmlns:svg="http://www.w3.org/2000/svg"
   xmlns="http://www.w3.org/2000/svg"
   xmlns:sodipodi="http://sodipodi.sourceforge.net/DTD/sodipodi-0.dtd"
   xmlns:inkscape="http://www.inkscape.org/namespaces/inkscape"
   version="1.1"
   id="svg3952"
   xml:space="preserve"
   width="481.07999"
   height="129.30467"
   viewBox="0 0 481.07999 129.30467"
   sodipodi:docname="bitcoin-s-white-background.svg"
   inkscape:version="0.92.4 (33fec40, 2019-01-16)"><metadata
     id="metadata3958"><rdf:RDF><cc:Work
         rdf:about=""><dc:format>image/svg+xml</dc:format><dc:type
           rdf:resource="http://purl.org/dc/dcmitype/StillImage" /><dc:title></dc:title></cc:Work></rdf:RDF></metadata><defs
     id="defs3956"><clipPath
       clipPathUnits="userSpaceOnUse"
       id="clipPath3968"><path
         d="M 0,96.978 H 360.81 V 0 H 0 Z"
         id="path3966"
         inkscape:connector-curvature="0" /></clipPath></defs><sodipodi:namedview
     pagecolor="#ffffff"
     bordercolor="#666666"
     borderopacity="1"
     objecttolerance="10"
     gridtolerance="10"
     guidetolerance="10"
     inkscape:pageopacity="0"
     inkscape:pageshadow="2"
     inkscape:window-width="1024"
     inkscape:window-height="1088"
     id="namedview3954"
     showgrid="false"
     inkscape:pagecheckerboard="true"
     inkscape:zoom="1.8001165"
     inkscape:cx="240.53999"
     inkscape:cy="64.652336"
     inkscape:window-x="0"
     inkscape:window-y="27"
     inkscape:window-maximized="0"
     inkscape:current-layer="g3960" /><g
     id="g3960"
     inkscape:groupmode="layer"
     inkscape:label="Dan Smith - Surebits_logo"
     transform="matrix(1.3333333,0,0,-1.3333333,0,129.30467)"><g
       id="g3962"><g
         id="g3964"
         clip-path="url(#clipPath3968)"><g
           id="g3970"
           transform="translate(121.9384,32.058)"><path
             d="m 0,0 c 1.676,1.814 2.514,4.138 2.514,6.972 0,2.832 -0.838,5.145 -2.514,6.941 -1.676,1.795 -3.83,2.692 -6.463,2.692 -2.673,0 -4.847,-0.897 -6.523,-2.692 -1.675,-1.796 -2.513,-4.109 -2.513,-6.941 0,-2.873 0.838,-5.207 2.513,-7.002 1.676,-1.795 3.85,-2.693 6.523,-2.693 2.633,0 4.787,0.907 6.463,2.723 m 3.201,21.063 c 2.294,-1.376 4.07,-3.3 5.326,-5.774 C 9.784,12.815 10.412,9.963 10.412,6.731 10.412,3.54 9.793,0.728 8.558,-1.706 7.32,-4.14 5.565,-6.035 3.291,-7.391 1.018,-8.747 -1.616,-9.425 -4.607,-9.425 c -2.394,0 -4.51,0.468 -6.344,1.406 -1.836,0.937 -3.351,2.304 -4.548,4.099 v -5.206 h -7.779 v 44.402 h 7.779 V 17.623 c 1.157,1.795 2.642,3.161 4.458,4.099 1.815,0.937 3.919,1.406 6.313,1.406 2.993,0 5.635,-0.688 7.929,-2.065"
             style="fill:#ffffff;fill-opacity:1;fill-rule:nonzero;stroke:none"
             id="path3972"
             inkscape:connector-curvature="0" /></g><g
           id="g3974"
           transform="translate(143.122,67.3939)"><path
             d="m 0,0 c 0.838,-0.878 1.257,-1.995 1.257,-3.352 0,-1.316 -0.419,-2.414 -1.257,-3.291 -0.838,-0.878 -1.896,-1.316 -3.172,-1.316 -1.276,0 -2.333,0.438 -3.171,1.316 -0.838,0.877 -1.257,1.975 -1.257,3.291 0,1.357 0.419,2.474 1.257,3.352 0.838,0.877 1.895,1.316 3.171,1.316 C -1.896,1.316 -0.838,0.877 0,0"
             style="fill:#ffffff;fill-opacity:1;fill-rule:nonzero;stroke:none"
             id="path3976"
             inkscape:connector-curvature="0" /></g><path
           d="M 136.121,54.947 H 143.9 V 22.932 h -7.779 z"
           style="fill:#ffffff;fill-opacity:1;fill-rule:nonzero;stroke:none"
           id="path3978"
           inkscape:connector-curvature="0" /><g
           id="g3980"
           transform="translate(169.2714,24.9066)"><path
             d="m 0,0 c -2.553,-1.556 -5.227,-2.334 -8.019,-2.334 -2.752,0 -5.006,0.809 -6.761,2.424 -1.756,1.616 -2.633,3.999 -2.633,7.151 v 15.798 h -4.488 l -0.06,5.685 h 4.548 v 8.797 h 7.72 v -8.797 h 9.155 V 23.039 H -9.693 V 8.617 c 0,-1.476 0.278,-2.523 0.837,-3.141 0.558,-0.62 1.396,-0.928 2.513,-0.928 1.197,0 2.713,0.438 4.548,1.316 z"
             style="fill:#ffffff;fill-opacity:1;fill-rule:nonzero;stroke:none"
             id="path3982"
             inkscape:connector-curvature="0" /></g><g
           id="g3984"
           transform="translate(185.7284,48.3646)"><path
             d="m 0,0 c -2.594,0 -4.697,-0.878 -6.313,-2.633 -1.616,-1.756 -2.424,-4.03 -2.424,-6.822 0,-2.872 0.808,-5.187 2.424,-6.941 1.616,-1.756 3.719,-2.633 6.313,-2.633 3.83,0 6.702,1.256 8.617,3.769 l 4.847,-4.009 c -1.436,-2.075 -3.331,-3.67 -5.685,-4.788 -2.354,-1.117 -5.087,-1.674 -8.198,-1.674 -3.152,0 -5.954,0.677 -8.407,2.034 -2.454,1.355 -4.36,3.261 -5.715,5.715 -1.357,2.453 -2.035,5.275 -2.035,8.467 0,3.232 0.688,6.083 2.064,8.557 1.377,2.474 3.291,4.389 5.745,5.745 2.454,1.356 5.276,2.034 8.468,2.034 2.911,0 5.515,-0.508 7.809,-1.525 2.294,-1.018 4.159,-2.464 5.595,-4.339 L 8.378,-3.531 C 6.224,-1.178 3.431,0 0,0"
             style="fill:#ffffff;fill-opacity:1;fill-rule:nonzero;stroke:none"
             id="path3986"
             inkscape:connector-curvature="0" /></g><g
           id="g3988"
           transform="translate(209.1259,45.8509)"><path
             d="m 0,0 c -1.676,-1.795 -2.514,-4.129 -2.514,-7.001 0,-2.873 0.838,-5.206 2.514,-7.002 1.676,-1.795 3.869,-2.692 6.583,-2.692 2.633,0 4.787,0.897 6.463,2.692 1.675,1.796 2.513,4.129 2.513,7.002 0,2.872 -0.838,5.206 -2.513,7.001 C 11.37,1.796 9.216,2.693 6.583,2.693 3.869,2.693 1.676,1.796 0,0 m 15.35,7.301 c 2.532,-1.357 4.507,-3.262 5.923,-5.715 1.416,-2.453 2.124,-5.276 2.124,-8.468 0,-3.231 -0.708,-6.084 -2.124,-8.556 -1.416,-2.475 -3.391,-4.39 -5.923,-5.746 -2.535,-1.356 -5.456,-2.034 -8.767,-2.034 -3.352,0 -6.305,0.678 -8.856,2.034 -2.554,1.356 -4.539,3.271 -5.956,5.746 -1.416,2.472 -2.124,5.325 -2.124,8.556 0,3.192 0.708,6.015 2.124,8.468 1.417,2.453 3.402,4.358 5.956,5.715 2.551,1.355 5.504,2.034 8.856,2.034 3.311,0 6.232,-0.679 8.767,-2.034"
             style="fill:#ffffff;fill-opacity:1;fill-rule:nonzero;stroke:none"
             id="path3990"
             inkscape:connector-curvature="0" /></g><g
           id="g3992"
           transform="translate(243.2948,67.3939)"><path
             d="m 0,0 c 0.838,-0.878 1.256,-1.995 1.256,-3.352 0,-1.316 -0.418,-2.414 -1.256,-3.291 -0.838,-0.878 -1.896,-1.316 -3.172,-1.316 -1.277,0 -2.334,0.438 -3.172,1.316 -0.838,0.877 -1.257,1.975 -1.257,3.291 0,1.357 0.419,2.474 1.257,3.352 0.838,0.877 1.895,1.316 3.172,1.316 C -1.896,1.316 -0.838,0.877 0,0"
             style="fill:#ffffff;fill-opacity:1;fill-rule:nonzero;stroke:none"
             id="path3994"
             inkscape:connector-curvature="0" /></g><path
           d="m 236.293,54.947 h 7.779 V 22.932 h -7.779 z"
           style="fill:#ffffff;fill-opacity:1;fill-rule:nonzero;stroke:none"
           id="path3996"
           inkscape:connector-curvature="0" /><g
           id="g3998"
           transform="translate(278.6601,51.9252)"><path
             d="m 0,0 c 2.114,-2.214 3.171,-5.217 3.171,-9.006 v -19.987 h -7.839 v 17.713 c 0,2.233 -0.639,3.999 -1.915,5.296 -1.277,1.296 -3.013,1.945 -5.206,1.945 -2.594,-0.041 -4.638,-0.919 -6.134,-2.634 -1.496,-1.716 -2.244,-3.91 -2.244,-6.582 v -15.738 h -7.779 V 3.021 h 7.779 v -5.983 c 2.193,4.108 6.023,6.202 11.489,6.283 C -5.007,3.321 -2.115,2.214 0,0"
             style="fill:#ffffff;fill-opacity:1;fill-rule:nonzero;stroke:none"
             id="path4000"
             inkscape:connector-curvature="0" /></g><path
           d="M 286.259,43.876 H 301.28 V 38.49 h -15.021 z"
           style="fill:#ffffff;fill-opacity:1;fill-rule:nonzero;stroke:none"
           id="path4002"
           inkscape:connector-curvature="0" /><g
           id="g4004"
           transform="translate(320.8769,48.4242)"><path
             d="m 0,0 c -1.656,0.519 -3.182,0.778 -4.578,0.778 -1.317,0 -2.363,-0.23 -3.142,-0.688 -0.778,-0.459 -1.167,-1.167 -1.167,-2.124 0,-0.998 0.489,-1.766 1.466,-2.304 0.978,-0.539 2.524,-1.107 4.638,-1.706 2.234,-0.679 4.069,-1.347 5.506,-2.005 1.436,-0.658 2.682,-1.636 3.74,-2.931 1.057,-1.297 1.586,-3.003 1.586,-5.117 0,-3.112 -1.197,-5.506 -3.591,-7.181 -2.394,-1.676 -5.406,-2.513 -9.036,-2.513 -2.474,0 -4.888,0.389 -7.24,1.167 -2.355,0.777 -4.35,1.885 -5.985,3.32 l 2.693,5.447 c 1.436,-1.238 3.151,-2.205 5.146,-2.903 1.994,-0.699 3.89,-1.048 5.685,-1.048 1.436,0 2.583,0.249 3.441,0.748 0.858,0.499 1.286,1.248 1.286,2.245 0,1.116 -0.499,1.954 -1.496,2.513 -0.997,0.558 -2.613,1.176 -4.847,1.855 -2.154,0.637 -3.91,1.266 -5.265,1.885 -1.358,0.619 -2.534,1.556 -3.531,2.813 -0.997,1.257 -1.496,2.902 -1.496,4.936 0,3.152 1.146,5.555 3.441,7.211 2.293,1.656 5.176,2.484 8.646,2.484 2.115,0 4.199,-0.299 6.254,-0.898 C 4.208,5.386 6.033,4.548 7.63,3.471 L 4.817,-2.154 C 3.261,-1.237 1.654,-0.519 0,0"
             style="fill:#ed5039;fill-opacity:1;fill-rule:nonzero;stroke:none"
             id="path4006"
             inkscape:connector-curvature="0" /></g><g
           id="g4008"
           transform="translate(60.327,74.4056)"><path
             d="m 0,0 c -15.708,0 -28.442,-12.734 -28.442,-28.442 0,-9.185 4.357,-17.347 11.112,-22.546 3.014,1.79 8.559,4.834 10.472,4.2 2.675,-0.886 5.147,-1.348 7.414,-1.385 2.139,-0.034 3.845,0.313 5.121,1.035 1.276,0.726 1.926,1.866 1.951,3.419 0.027,1.621 -0.746,2.881 -2.32,3.781 -1.573,0.901 -4.068,1.866 -7.487,2.893 -3.611,1.162 -6.574,2.295 -8.889,3.402 -2.316,1.107 -4.314,2.728 -5.998,4.861 -1.682,2.134 -2.496,4.919 -2.44,8.351 0.082,5.055 2.089,8.911 6.022,11.57 3.931,2.659 8.847,3.938 14.742,3.842 4.018,-0.065 7.928,-0.76 11.729,-2.086 3.804,-1.325 5.115,-14.326 5.115,-14.326 -2.3,2.047 -5.06,3.664 -8.283,4.85 -3.22,1.188 -6.289,1.805 -9.205,1.852 -2.333,0.038 -4.201,-0.336 -5.608,-1.124 -1.406,-0.788 -2.123,-1.992 -2.149,-3.611 -0.03,-1.813 0.759,-3.187 2.363,-4.122 1.606,-0.933 4.214,-1.978 7.824,-3.141 3.482,-1.092 6.317,-2.16 8.503,-3.202 2.187,-1.039 4.075,-2.592 5.66,-4.661 1.587,-2.067 2.354,-4.753 2.3,-8.057 -0.058,-3.559 -1.028,-6.5 -2.867,-8.856 7.147,5.166 11.802,13.567 11.802,23.061 C 28.442,-12.734 15.708,0 0,0"
             style="fill:#ed5039;fill-opacity:1;fill-rule:nonzero;stroke:none"
             id="path4010"
             inkscape:connector-curvature="0" /></g></g></g></g></svg>