<svg xmlns="http://www.w3.org/2000/svg" width="481.08" height="129.305" viewBox="0 0 481.08 129.305"><defs><clipPath clipPathUnits="userSpaceOnUse" id="a"><path d="M0 96.978h360.81V0H0z"/></clipPath></defs><g clip-path="url(#a)" transform="matrix(1.33333 0 0 -1.33333 0 129.305)"><path d="M121.938 32.058c1.676 1.814 2.514 4.138 2.514 6.972 0 2.832-.838 5.145-2.514 6.941-1.676 1.795-3.83 2.692-6.463 2.692-2.673 0-4.847-.897-6.523-2.692-1.675-1.796-2.513-4.109-2.513-6.941 0-2.873.838-5.207 2.513-7.002 1.676-1.795 3.85-2.693 6.523-2.693 2.633 0 4.787.907 6.463 2.723m3.201 21.063c2.294-1.376 4.07-3.3 5.326-5.774 1.257-2.474 1.885-5.326 1.885-8.558 0-3.191-.619-6.003-1.854-8.437-1.238-2.434-2.993-4.329-5.267-5.685-2.273-1.356-4.907-2.034-7.898-2.034-2.394 0-4.51.468-6.344 1.406-1.836.937-3.35 2.304-4.548 4.099v-5.206H98.66v44.402h7.78V49.681c1.156 1.795 2.641 3.161 4.457 4.099 1.815.937 3.92 1.406 6.313 1.406 2.993 0 5.635-.688 7.93-2.065m17.982 14.273c.838-.878 1.257-1.995 1.257-3.352 0-1.316-.419-2.414-1.257-3.291-.838-.878-1.896-1.316-3.172-1.316-1.276 0-2.333.438-3.171 1.316-.838.877-1.257 1.975-1.257 3.29 0 1.358.419 2.475 1.257 3.353.838.877 1.895 1.316 3.171 1.316 1.276 0 2.334-.44 3.172-1.316m-7.001-12.447h7.779V22.932h-7.779zm33.15-30.04c-2.553-1.556-5.227-2.334-8.019-2.334-2.752 0-5.006.809-6.76 2.424-1.757 1.616-2.634 3.999-2.634 7.15v15.799h-4.488l-.06 5.685h4.548v8.797h7.72V53.63h9.155v-5.685h-9.155V33.524c0-1.476.278-2.523.837-3.141.558-.62 1.396-.928 2.513-.928 1.197 0 2.713.438 4.548 1.316zm16.457 23.458c-2.594 0-4.697-.878-6.313-2.633-1.616-1.756-2.424-4.03-2.424-6.822 0-2.872.808-5.187 2.424-6.941 1.616-1.756 3.72-2.633 6.313-2.633 3.83 0 6.702 1.256 8.617 3.769l4.847-4.01c-1.436-2.074-3.33-3.67-5.685-4.787-2.354-1.117-5.087-1.674-8.198-1.674-3.152 0-5.954.677-8.407 2.034a14.301 14.301 0 00-5.715 5.715c-1.357 2.453-2.035 5.275-2.035 8.467 0 3.232.688 6.083 2.064 8.557 1.377 2.474 3.291 4.389 5.745 5.745 2.454 1.356 5.276 2.034 8.468 2.034 2.911 0 5.515-.508 7.81-1.525 2.293-1.018 4.158-2.464 5.594-4.34l-4.727-4.487c-2.154 2.353-4.947 3.53-8.378 3.53" fill="#fff"/><path d="M209.126 45.85c-1.676-1.794-2.514-4.128-2.514-7 0-2.873.838-5.206 2.514-7.002 1.676-1.795 3.869-2.692 6.583-2.692 2.633 0 4.787.897 6.463 2.692 1.675 1.796 2.513 4.129 2.513 7.002 0 2.872-.838 5.206-2.513 7-1.676 1.797-3.83 2.694-6.463 2.694-2.714 0-4.907-.897-6.583-2.693m15.35 7.3c2.532-1.356 4.507-3.261 5.923-5.714 1.416-2.453 2.124-5.276 2.124-8.468 0-3.231-.708-6.084-2.124-8.556-1.416-2.475-3.391-4.39-5.923-5.746-2.535-1.356-5.456-2.034-8.767-2.034-3.352 0-6.305.678-8.856 2.034-2.554 1.356-4.54 3.27-5.956 5.746-1.416 2.472-2.124 5.325-2.124 8.556 0 3.192.708 6.015 2.124 8.468 1.417 2.453 3.402 4.358 5.956 5.715 2.55 1.355 5.504 2.034 8.856 2.034 3.31 0 6.232-.68 8.767-2.034m18.819 14.242c.838-.878 1.256-1.995 1.256-3.352 0-1.316-.418-2.414-1.256-3.291-.838-.878-1.896-1.316-3.172-1.316-1.277 0-2.334.438-3.172 1.316-.838.877-1.257 1.975-1.257 3.29 0 1.358.419 2.475 1.257 3.353.838.877 1.895 1.316 3.172 1.316 1.276 0 2.334-.44 3.172-1.316m-7.002-12.447h7.779V22.932h-7.779zm42.367-3.022c2.114-2.214 3.171-5.217 3.171-9.006V22.932h-7.839v17.713c0 2.233-.639 4-1.915 5.296-1.277 1.296-3.013 1.945-5.206 1.945-2.594-.04-4.638-.919-6.134-2.634-1.496-1.716-2.244-3.91-2.244-6.582V22.932h-7.779v32.014h7.78v-5.983c2.192 4.108 6.022 6.202 11.488 6.283 3.671 0 6.563-1.107 8.678-3.32m7.599-8.05h15.021V38.49h-15.021z" fill="#fff"/><path d="M320.877 48.424c-1.656.52-3.182.778-4.578.778-1.317 0-2.363-.23-3.142-.688-.778-.459-1.167-1.167-1.167-2.124 0-.998.489-1.766 1.466-2.304.978-.539 2.524-1.107 4.638-1.706 2.234-.679 4.069-1.347 5.506-2.005 1.436-.658 2.682-1.636 3.74-2.93 1.057-1.298 1.586-3.004 1.586-5.118 0-3.112-1.197-5.506-3.591-7.18-2.394-1.677-5.406-2.514-9.036-2.514-2.474 0-4.888.39-7.24 1.167-2.355.777-4.35 1.885-5.985 3.32l2.693 5.447c1.436-1.238 3.15-2.205 5.146-2.903 1.994-.699 3.89-1.048 5.685-1.048 1.436 0 2.583.25 3.44.748.859.5 1.287 1.248 1.287 2.245 0 1.116-.5 1.954-1.496 2.513-.997.558-2.613 1.176-4.847 1.855-2.154.637-3.91 1.266-5.265 1.885-1.358.62-2.534 1.556-3.531 2.813-.997 1.257-1.496 2.902-1.496 4.936 0 3.152 1.146 5.555 3.44 7.211 2.294 1.656 5.177 2.484 8.647 2.484 2.115 0 4.199-.299 6.254-.898 2.054-.598 3.879-1.436 5.476-2.513l-2.813-5.625a23.084 23.084 0 01-4.817 2.154M60.327 74.406c-15.708 0-28.442-12.734-28.442-28.442 0-9.185 4.357-17.347 11.112-22.546 3.014 1.79 8.559 4.834 10.472 4.2 2.675-.886 5.147-1.348 7.414-1.385 2.139-.034 3.845.313 5.121 1.035 1.276.726 1.926 1.866 1.951 3.419.027 1.62-.746 2.88-2.32 3.78-1.573.902-4.068 1.867-7.487 2.894-3.611 1.162-6.574 2.295-8.889 3.402-2.316 1.107-4.314 2.728-5.998 4.86-1.682 2.135-2.496 4.92-2.44 8.352.082 5.055 2.089 8.91 6.022 11.57 3.931 2.659 8.847 3.938 14.742 3.842A37.212 37.212 0 0073.314 67.3c3.804-1.325 5.115-14.326 5.115-14.326-2.3 2.047-5.06 3.664-8.283 4.85-3.22 1.188-6.289 1.805-9.205 1.852-2.333.038-4.201-.336-5.608-1.124-1.406-.788-2.123-1.992-2.149-3.611-.03-1.813.759-3.187 2.363-4.122 1.606-.933 4.214-1.978 7.824-3.141 3.482-1.092 6.317-2.16 8.503-3.202 2.187-1.04 4.075-2.592 5.66-4.661 1.587-2.067 2.354-4.753 2.3-8.057-.058-3.56-1.028-6.5-2.867-8.856 7.147 5.166 11.802 13.567 11.802 23.06 0 15.709-12.734 28.443-28.442 28.443" fill="#ed5039"/></g></svg>