<svg data-name="Layer 1" xmlns="http://www.w3.org/2000/svg" width="933.321" height="629.287" viewBox="0 0 933.321 629.287"><circle cx="603.482" cy="110.659" r="32" fill="#f2f2f2"/><path fill="#f2f2f2" d="M179.008 0l547.635 335.053-179.008 292.584L0 292.584z"/><path d="M677.982 427.86c-5-11.5-12.7-21.6-28.1-30.1a98.147 98.147 0 00-25.4-10 62.22 62.22 0 0016.3-11 56.368 56.368 0 0015.6-23.3 77.109 77.109 0 003.5-28.2c-1.1-16.8-4.4-33.1-13.2-44.8s-21.2-20.7-37.6-27c-12.6-4.8-25.5-7.8-45.5-8.9v-63.9l-40 25v39h-32v-41l-41-23v64h-87.1l28 48c8.65.01 14.51.81 17.5 2.3a13.225 13.225 0 016.5 6c1.3 2.5 1.9 8.4 1.9 17.5v173.2c0 9-.6 14.8-1.9 17.4s-2 4.9-5.1 6.3-3.2 1.3-11.8 1.3h-.1l-35 48h87v64h41v-64h32v64h40v-64.4c26-1.3 44.5-4.7 59.4-10.3 19.3-7.2 34.1-17.7 44.7-31.5s14.9-34.9 15.8-51.2c.7-14.5-.9-33.2-5.4-43.4zm-186.5-129.2h.01v-1.33h27.96c15.73 0 68.15-5.24 69.02 37.57.88 42.81-69.02 41.06-69.02 41.06h-27.96v-3.3h-.01zm0 122h32c6.5 0 28.86.99 37 1.36a35.499 35.499 0 019.76 1.74c1.15.39 2.24.83 3.42 1.32a49.732 49.732 0 0113.79 6.98 28.807 28.807 0 017.13 6.7 38.229 38.229 0 012.36 3.69 37.473 37.473 0 014.17 10.29 41.737 41.737 0 011.47 10.72c0 7.79-1.44 14.24-4.99 19.7-4.81 8.06-12.7 13.77-21.58 17.8-22.96 10.44-52.53 9.7-52.53 9.7h-32z" fill="#3f3d56"/><path d="M612.141 112.006a3.437 3.437 0 00-1.575-1.747 5.393 5.393 0 00-1.424-.58 3.482 3.482 0 00.914-.64 3.282 3.282 0 00.875-1.351 4.623 4.623 0 00.196-1.637 4.992 4.992 0 00-.74-2.6 4.633 4.633 0 00-2.108-1.567 7.682 7.682 0 00-2.55-.516v-3.709l-2.243 1.45v2.264h-1.794v-2.38l-2.298-1.334v3.714h-4.883l1.57 2.786a2.447 2.447 0 01.98.134.752.752 0 01.365.348 2.884 2.884 0 01.106 1.015v10.052a2.888 2.888 0 01-.106 1.01c-.073.15-.112.284-.286.366s-.18.075-.662.075h-.005l-1.962 2.786h4.877v3.714h2.298v-3.714h1.794v3.714h2.243v-3.737a10.628 10.628 0 003.33-.598 5.476 5.476 0 002.505-1.828 5.802 5.802 0 00.886-2.972 6.754 6.754 0 00-.303-2.518zm-10.455-7.499v-.077h1.568c.882 0 3.82-.304 3.87 2.18.049 2.485-3.87 2.384-3.87 2.384h-1.567v-.192zm0 7.08h1.794c.365 0 1.618.058 2.074.08a1.93 1.93 0 01.548.1c.064.023.125.049.191.077a2.753 2.753 0 01.773.405 1.64 1.64 0 01.4.39 2.482 2.482 0 01.366.81 2.502 2.502 0 01.083.623 2.085 2.085 0 01-.28 1.143 2.648 2.648 0 01-1.21 1.033 7.554 7.554 0 01-2.945.563h-1.794z" fill="#1f7a8c" opacity=".3"/><circle cx="798.13" cy="464.063" r="11.729" fill="#ff6584"/><path fill="#3f3d56" stroke="#3f3d56" stroke-miterlimit="10" stroke-width="2" d="M890.596 591.744v-133.55"/><circle cx="890.596" cy="458.194" r="18.886" fill="#3f3d56"/><path d="M853.401 532.97c-27.28 41.834-19.805 95.042-19.805 95.042s51.704-14.619 78.984-56.453 19.805-95.043 19.805-95.043-51.704 14.62-78.984 56.454z" fill="#3f3d56"/><path d="M833.451 627.526s-.664-.106-1.886-.353c-.975-.198-2.317-.48-3.956-.87-14.653-3.454-53.608-15.132-79.077-45.836-31.877-38.447-30.534-92.16-30.534-92.16s48.74 7.919 80.857 42.445q2.087 2.225 4.062 4.613c27.736 33.452 30.322 78.462 30.527 89.59.028 1.667.007 2.571.007 2.571z" fill="#1f7a8c"/><path d="M813.791 532.97c27.28 41.834 19.805 95.042 19.805 95.042s-51.703-14.619-78.983-56.453-19.805-95.043-19.805-95.043 51.704 14.62 78.983 56.454z" fill="none" stroke="#3f3d56" stroke-miterlimit="10" stroke-width="2"/><path d="M833.444 624.954c-.72.87-1.356 1.611-1.88 2.219-1.158 1.32-1.815 2.013-1.815 2.013s-.798-1.003-2.14-2.882c-7.37-10.272-31.072-46.798-29.242-88.989q.149-3.317.488-6.563 2.087 2.225 4.062 4.613c27.736 33.452 30.322 78.462 30.527 89.59z" opacity=".1"/><path d="M873.893 540.366c-2.157 49.897-39.196 88.82-39.196 88.82s-33.543-41.973-31.387-91.87 39.196-88.82 39.196-88.82 33.543 41.974 31.387 91.87z" fill="#1f7a8c"/><path fill="none" stroke="#3f3d56" stroke-miterlimit="10" stroke-width="2" d="M834.697 627.774l8.143-177.243M57.472 627.968h846.02"/><circle cx="237.156" cy="369.084" r="42.73" fill="#1f7a8c"/><circle cx="164.526" cy="469.648" r="42.73" fill="#1f7a8c"/><circle cx="75.136" cy="549.96" r="42.73" fill="#1f7a8c"/><path fill="#3f3d56" stroke="#3f3d56" stroke-miterlimit="10" stroke-width="2" d="M75.098 627.235v-77.51"/><circle cx="75.098" cy="549.725" r="10.961" fill="#3f3d56"/><path d="M75.098 597.496s-1.566-33.678-33.666-29.764" fill="#3f3d56"/><path fill="#3f3d56" stroke="#3f3d56" stroke-miterlimit="10" stroke-width="2" d="M237.182 627.779V369.241"/><circle cx="237.182" cy="369.119" r="10.961" fill="#3f3d56"/><circle cx="203.516" cy="556.172" r="10.961" fill="#3f3d56"/><path d="M237.182 425.108s-1.565-33.678-33.666-29.763m33.666 125.238s-1.565-33.679-33.666-29.764" fill="#3f3d56"/><path d="M237.182 624.766s7.047-65.462-33.666-68.594" fill="none" stroke="#3f3d56" stroke-miterlimit="10" stroke-width="2"/><circle cx="270.853" cy="556.172" r="10.961" fill="#3f3d56"/><path d="M237.187 624.766s-7.046-65.462 33.666-68.594" fill="none" stroke="#3f3d56" stroke-miterlimit="10" stroke-width="2"/><circle cx="271.521" cy="453.354" r="10.961" fill="#3f3d56"/><path d="M237.855 518.456s-7.047-61.97 33.666-65.102" fill="none" stroke="#3f3d56" stroke-miterlimit="10" stroke-width="2"/><path fill="#3f3d56" stroke="#3f3d56" stroke-miterlimit="10" stroke-width="2" d="M164.565 627.414V469.601"/><circle cx="164.565" cy="469.601" r="10.961" fill="#3f3d56"/><path d="M164.565 514.24s-1.566-33.678-33.666-29.764" fill="#3f3d56"/><path d="M164.565 624.401s7.046-64.763-33.666-67.895" fill="none" stroke="#3f3d56" stroke-miterlimit="10" stroke-width="2"/><circle cx="130.899" cy="556.506" r="10.961" fill="#3f3d56"/><circle cx="766.482" cy="369.659" r="18" fill="#f2f2f2"/><path d="M576.012 500.96c-22.96 10.44-52.53 9.7-52.53 9.7h-32v-6.11c13.04-3.64 31.07-5.89 51-5.89a233.66 233.66 0 0133.53 2.3z" opacity=".1"/><path d="M614.482 518.66c0 11.05-32.24 20-72 20s-72-8.95-72-20c0-5.51 8.02-10.5 21-14.11v6.11h32s29.57.74 52.53-9.7c22.87 3.34 38.47 10.01 38.47 17.7z" opacity=".1"/><path fill="#2f2e41" d="M521.043 394.129h30.635v30.69h-30.635z"/><path d="M532.435 415.832s2.536 8.875-1.901 9.509a17.323 17.323 0 00-7.608 3.17l8.242 10.776h15.214l9.509-9.509s-12.679-9.509-10.143-15.214-13.313 1.268-13.313 1.268z" fill="#ffb9b9"/><path d="M532.435 415.832s2.536 8.875-1.901 9.509a17.323 17.323 0 00-7.608 3.17l8.242 10.776h15.214l9.509-9.509s-12.679-9.509-10.143-15.214-13.313 1.268-13.313 1.268z" opacity=".1"/><path fill="#ffb9b9" d="M536.239 526.136l14.581 5.071 10.142.634-.634-8.875-20.919-6.187-3.17 9.357z"/><path d="M554.94 524.234s0 8.875 1.268 8.875 18.384-1.902 23.455 0 12.68-5.071 8.875-8.875-10.007-9.509-13.879-8.241-19.719 4.438-19.719 4.438zm-46.594-8.241s-7.607 15.214-2.536 16.482 10.777-.634 11.411-1.268 9.51-3.17 10.777-1.901 1.268-5.072 1.268-5.072z" fill="#2f2e41"/><path d="M514.685 495.073s-12.044 16.482-3.17 20.92 51.35 4.438 54.519 0 4.437-18.384 0-19.652-51.349-1.268-51.349-1.268z" fill="#2f2e41"/><path d="M514.685 495.073s-12.044 16.482-3.17 20.92 51.35 4.438 54.519 0 4.437-18.384 0-19.652-51.349-1.268-51.349-1.268z" opacity=".2"/><circle cx="537.507" cy="405.689" r="14.58" fill="#ffb9b9"/><path d="M514.685 428.51l12.679-2.535s3.17 10.143 13.313 8.24 12.678-8.24 12.678-8.24 7.607 3.17 8.241 3.17 8.875 3.169 8.875 5.07-9.509 20.92-9.509 20.92l1.268 34.233-46.91-1.268 3.169-33.598z" fill="#1f7a8c"/><path d="M507.712 444.993s-3.803 33.598-1.268 36.134 12.679 9.509 12.679 9.509v-7.607l-5.072-9.51 5.072-22.187zm65.612-.951s-2.219 34.549-2.219 35.817-5.705 5.705-7.607 5.705-3.17-3.17-3.17-3.17l4.438-5.07-3.17-25.992z" fill="#ffb9b9"/><path d="M567.302 492.538s28.527-15.849 29.16 0-14.58 22.187-14.58 22.187-39.304 11.786-40.888 7.478-4.755-11.281-2.22-11.915 5.706-1.902 6.974-.634 17.116-9.51 17.116-9.51z" fill="#2f2e41"/><path d="M580.614 490.636s-5.705 2.535-7.607 4.437-10.143 5.072-10.143 5.072" fill="none" stroke="#000" stroke-miterlimit="10" stroke-width="2" opacity=".2"/><path d="M518.489 429.778l-3.804-1.268s-13.946 14.58-9.509 18.384 6.974 5.072 8.241 6.34 7.608 1.901 7.608 1.901zm46.277 3.17l5.705 1.268s4.438 9.509 5.706 10.777-1.902.634-3.804 3.17-3.803 6.972-7.607 6.972-8.875-6.339-8.875-6.339z" fill="#1f7a8c"/><path d="M515.953 498.243s-24.09-17.116-32.33-4.438 35.5 29.795 41.84 32.33 12.044 5.072 12.044 5.072 5.705-13.946 5.705-16.482-4.437-2.536-5.705-2.536-6.973-1.267-8.241-3.17-13.313-10.776-13.313-10.776z" fill="#2f2e41"/><path d="M502.64 493.805s6.34 5.072 12.045 6.34 7.608 4.437 7.608 4.437" fill="none" stroke="#000" stroke-miterlimit="10" stroke-width="2" opacity=".2"/><path d="M511.58 469.97l.507 26.84a3.36 3.36 0 003.397 3.297l49.95-.561a3.36 3.36 0 003.316-3.166l1.516-26.28a3.36 3.36 0 00-3.354-3.554H514.94a3.36 3.36 0 00-3.36 3.424z" fill="#575a89"/><path d="M505.803 428.67c1.36-3.002 3.188-5.82 4.06-8.998 1.044-3.81.637-7.84.513-11.789a37.017 37.017 0 01.883-10.403 17.885 17.885 0 015.143-8.953c6.643-5.93 18.801-6.356 26.913-3.887 3.198.973 6.605 2.827 7.398 6.074.12.49.174.996.307 1.482.664 2.418 3.138 3.948 4.03 6.291 1.155 3.03-.625 6.327-.858 9.562-.272 3.776 1.585 7.344 3.415 10.659 1.088 1.97 2.219 4.07 2.11 6.318a7.982 7.982 0 01-1.092 3.482 13.28 13.28 0 01-11.156 6.395 7 7 0 01-4.178-.986c-1.98-1.364-2.56-4.109-2.148-6.477s1.615-4.51 2.557-6.72c.289-.68.55-1.37.79-2.067a14.186 14.186 0 10-9.357 1.588 19.216 19.216 0 01-.93 10.684 40.347 40.347 0 01-4.488 7.823 10.8 10.8 0 01-2.858 3.2 10.143 10.143 0 01-2.435 1.04c-3.58 1.15-7.351 2.077-11.077 1.56s-7.415-2.766-8.684-6.306c-1.112-3.103-.219-6.57 1.142-9.572z" fill="#2f2e41"/><ellipse cx="536.801" cy="397.502" rx="15.474" ry="8.768" fill="#2f2e41"/><path d="M773.21 370.705a2.67 2.67 0 00-1.223-1.357 4.191 4.191 0 00-1.107-.451 2.706 2.706 0 00.71-.496 2.55 2.55 0 00.68-1.05 3.592 3.592 0 00.152-1.273 3.88 3.88 0 00-.575-2.02 3.6 3.6 0 00-1.637-1.218 5.97 5.97 0 00-1.983-.401v-2.882l-1.742 1.128v1.758h-1.394v-1.849l-1.786-1.037v2.886h-3.794l1.22 2.165a1.902 1.902 0 01.762.104.585.585 0 01.283.27 2.24 2.24 0 01.083.79v7.81a2.244 2.244 0 01-.083.785c-.057.117-.087.221-.222.284s-.14.059-.514.059h-.005l-1.524 2.165h3.79v2.886h1.786v-2.886h1.394v2.886h1.742v-2.904a8.259 8.259 0 002.588-.465 4.256 4.256 0 001.947-1.42 4.508 4.508 0 00.688-2.31 5.248 5.248 0 00-.235-1.957zm-8.123-5.826v-.06h1.218c.685 0 2.969-.237 3.007 1.694.038 1.93-3.007 1.852-3.007 1.852h-1.218v-.149zm0 5.502h1.394c.283 0 1.257.044 1.611.061a1.5 1.5 0 01.426.078c.05.018.097.038.149.06a2.14 2.14 0 01.6.315 1.274 1.274 0 01.31.302 1.928 1.928 0 01.285.63 1.945 1.945 0 01.064.484 1.62 1.62 0 01-.217.888 2.058 2.058 0 01-.94.803 5.87 5.87 0 01-2.288.437h-1.394z" fill="#1f7a8c" opacity=".3"/><circle cx="64.482" cy="432.659" r="18" fill="#f2f2f2"/><path d="M71.21 433.705a2.67 2.67 0 00-1.223-1.357 4.191 4.191 0 00-1.107-.451 2.706 2.706 0 00.71-.496 2.55 2.55 0 00.68-1.05 3.592 3.592 0 00.152-1.273 3.88 3.88 0 00-.575-2.02 3.6 3.6 0 00-1.638-1.218 5.97 5.97 0 00-1.982-.401v-2.882l-1.742 1.128v1.758H63.09v-1.849l-1.786-1.037v2.886H57.51l1.22 2.165a1.902 1.902 0 01.762.104.585.585 0 01.283.27 2.24 2.24 0 01.083.79v7.81a2.244 2.244 0 01-.083.785c-.057.117-.087.221-.222.284s-.14.059-.514.059h-.005l-1.524 2.165h3.79v2.886h1.786v-2.886h1.394v2.886h1.742v-2.904a8.259 8.259 0 002.588-.465 4.256 4.256 0 001.947-1.42 4.508 4.508 0 00.688-2.31 5.248 5.248 0 00-.235-1.957zm-8.123-5.826v-.06h1.218c.685 0 2.969-.237 3.007 1.694.038 1.93-3.007 1.852-3.007 1.852h-1.218v-.149zm0 5.502h1.394c.283 0 1.257.044 1.611.061a1.5 1.5 0 01.426.078c.05.018.097.038.149.06a2.14 2.14 0 01.6.315 1.274 1.274 0 01.31.302 1.928 1.928 0 01.285.63 1.945 1.945 0 01.064.484 1.62 1.62 0 01-.217.888 2.058 2.058 0 01-.94.803 5.87 5.87 0 01-2.288.437h-1.394z" fill="#1f7a8c" opacity=".3"/></svg>